# xmcd
#
# Track frame offsets:
#	150
#	19672
#	34677
#	51845
#	68942
#	82667
#	102242
#	120655
#	140070
#
# Disc length: 2152 seconds
#
# Revision: 2
# Processed by: cddbd v1.5.2PL0 Copyright (c) Steve Scherf et al.
# Submitted via: EasyCDDAExtractor 15.3.0.1
#
DISCID=71086609
DTITLE=Lourdes Robles - Imagenes
DYEAR=1990
DGENRE=Latin
TTITLE0=Abrazame Fuerte
TTITLE1=Es El
TTITLE2=Chin-Chin (Brindemos Por Nosotros)
TTITLE3=Gracias A Tu Amor (Duo Con Luis Enrique)
TTITLE4=Miedo
TTITLE5=Que Lastima
TTITLE6=Dime Como Llego A Ti
TTITLE7=La Nota Ideal
TTITLE8=Ni Tu Ni Yo
EXTD=CBS, 1990\nCD-80378
EXTT0=
EXTT1=
EXTT2=
EXTT3=
EXTT4=
EXTT5=
EXTT6=
EXTT7=
EXTT8=
PLAYORDER=
